<svg height="526" width="720" xmlns="http://www.w3.org/2000/svg">
<rect height="526" fill="#555" width="720"></rect>
<text fill="#7f7" font-family="Courier New" font-size="12" xml:space="preserve">
<tspan x="10" y="26">7 megabytes installed</tspan>
<tspan x="10" y="42"></tspan>
<tspan x="10" y="58">node_modules</tspan>
<tspan x="10" y="74">├── UNMET PEER DEPENDENCY grunt@&gt;=0.4.5</tspan>
<tspan x="10" y="90">└─┬ grunt-jsdoc@2.1.0 </tspan>
<tspan x="10" y="106">  ├─┬ cross-spawn@3.0.1 </tspan>
<tspan x="10" y="122">  │ ├─┬ lru-cache@4.0.2 </tspan>
<tspan x="10" y="138">  │ │ ├── pseudomap@1.0.2 </tspan>
<tspan x="10" y="154">  │ │ └── yallist@2.1.2 </tspan>
<tspan x="10" y="170">  │ └─┬ which@1.2.14 </tspan>
<tspan x="10" y="186">  │   └── isexe@2.0.0 </tspan>
<tspan x="10" y="202">  └─┬ jsdoc@3.4.3 </tspan>
<tspan x="10" y="218">    ├── bluebird@3.4.7 </tspan>
<tspan x="10" y="234">    ├─┬ catharsis@0.8.8 </tspan>
<tspan x="10" y="250">    │ └─┬ underscore-contrib@0.3.0 </tspan>
<tspan x="10" y="266">    │   └── underscore@1.6.0 </tspan>
<tspan x="10" y="282">    ├── escape-string-regexp@1.0.5 </tspan>
<tspan x="10" y="298">    ├─┬ espree@3.1.7 </tspan>
<tspan x="10" y="314">    │ ├── acorn@3.3.0 </tspan>
<tspan x="10" y="330">    │ └── acorn-jsx@3.0.1 </tspan>
<tspan x="10" y="346">    ├── js2xmlparser@1.0.0 </tspan>
<tspan x="10" y="362">    ├─┬ klaw@1.3.1 </tspan>
<tspan x="10" y="378">    │ └── graceful-fs@4.1.11 </tspan>
<tspan x="10" y="394">    ├── marked@0.3.6 </tspan>
<tspan x="10" y="410">    ├─┬ mkdirp@0.5.1 </tspan>
<tspan x="10" y="426">    │ └── minimist@0.0.8 </tspan>
<tspan x="10" y="442">    ├─┬ requizzle@0.2.1 </tspan>
<tspan x="10" y="458">    │ └── underscore@1.6.0 </tspan>
<tspan x="10" y="474">    ├── strip-json-comments@2.0.1 </tspan>
<tspan x="10" y="490">    ├── taffydb@2.6.2 </tspan>
<tspan x="10" y="506">    └── underscore@1.8.3</tspan>
</text>
</svg>
